<?xml version="1.0" encoding="utf-8"?>
<!-- Generator: Adobe Illustrator 18.1.1, SVG Export Plug-In . SVG Version: 6.00 Build 0)  -->
<svg version="1.1" id="图层_1" xmlns="http://www.w3.org/2000/svg" xmlns:xlink="http://www.w3.org/1999/xlink" x="0px" y="0px"
	 viewBox="0 0 265 120" enable-background="new 0 0 265 120" xml:space="preserve">
<g>
	<g>
		<g>
			<path fill="#44ADE2" d="M108.4,17.8c-1.9-1.5-3.8-2.9-6-4.1C72.2-8.4,29.8-2.2,7.3,27.6C15.5,16.9,28,11.2,40.6,11.2
				C17.1,21.9,0.9,45.7,2.1,73.3c0.4,8.4,1.6,17.2,5,23.8c2.8-5.1,6-10.6,9.4-14.8c-0.3,8.8,3.1,22.7,7.4,29.3
				c4.4-9,8.8-16.4,15.4-23.7c0.3-0.4,0.7-0.7,1-1.1c1.9,12.6,7.8,24.5,15.5,33.9c0-0.9-0.1-1.9-0.1-2.9c0-10.4,2.4-20.8,6.5-29.6
				c0.1-0.2,0.8-0.5,0.9-0.7c0.2,0.4,0.4,0.8,0.6,1.2c5.2,9.7,12.6,18,21.6,24.2c-3-6.3-4.7-13.2-5.7-20.4c-0.4-3-0.8-6-0.8-9
				c0-6.6-0.3-10.2,1.4-19.1c0.5-2.9,1.1-3.9,2.1-7.2c0.3-1.1,1.4-3.5,1.9-4.5c2.2-4.3,4.4-7.9,7.7-12c0.6-0.8,1.6-1.5,2.3-2.3
				c2.9-2.9,8.5-4.7,12.9-4.7c8.4,0,15.1,6,15.9,14.2c-0.3-9.6-3.4-17.3-9.1-24.2C112.4,21.5,110.5,19.5,108.4,17.8z M16.7,80.4
				C16.7,80.4,16.7,80.4,16.7,80.4C16.7,80.4,16.7,80.3,16.7,80.4C16.7,80.4,16.7,80.4,16.7,80.4z M72,44.7c-3.1,0-5.6-2.5-5.6-5.6
				s2.5-5.6,5.6-5.6s5.6,2.5,5.6,5.6S75.1,44.7,72,44.7z"/>
			<path fill="#44ADE2" d="M123.3,47.8C123.2,47.8,123.2,47.8,123.3,47.8S123.3,47.8,123.3,47.8z"/>
		</g>
		<circle fill="#404041" cx="74.1" cy="39.1" r="3.5"/>
	</g>
	<g>
		<path fill="#F2F2F2" d="M114.3,57.5c0.5,0,1.1,0.3,1.1,0.9l1.7,16c0.1,0.7,0.3,1.3,0.6,1.3c0.3,0,0.6-0.5,0.7-1.3l1.8-16
			c0.1-0.5,0.4-0.9,0.9-0.9l7.7,0c0.4,0,0.8,0.3,0.9,0.7l2,16.2c0.1,0.7,0.3,1.3,0.6,1.3c0.3,0,0.6-0.5,0.7-1.3l1.5-16.1
			c0.1-0.5,0.4-0.8,0.8-0.8l12.2,0c0.8,0,1,0.4,0.9,0.9l-7,48.8c-0.1,0.7-0.5,1-1,1l-11,0c-0.5,0-0.8-0.3-0.9-0.7l-2.9-16.4
			c-0.1-0.6-0.3-1.1-0.6-1.1c-0.3,0-0.5,0.5-0.6,1.2l-2.6,16.2c-0.2,0.5-0.4,0.8-0.8,0.8l-11.1,0c-0.5,0-1-0.4-1.1-0.9l-7.2-49
			c-0.1-0.6,0.3-0.9,0.8-0.9L114.3,57.5z"/>
		<path fill="#F2F2F2" d="M151.7,58.3c0-0.4,0.5-0.9,1-0.9l26.7,0c0.5,0,0.8,0.3,0.8,0.7l0,12.2c0,0.4-0.4,0.7-0.8,0.7l-12.6,0
			c-0.3,0-0.5,0.2-0.5,0.5l0,3.8c0,0.3,0.3,0.5,0.5,0.5l12.7,0c0.3,0,0.5,0.2,0.5,0.5l0,12.3c0,0.3-0.3,0.6-0.6,0.6l-12.9,0
			c-0.3,0-0.5,0.2-0.5,0.5l0,4c0,0.3,0.2,0.5,0.5,0.5l13,0c0.5,0,0.8,0.3,0.8,0.7l0,12.6c0,0.4-0.4,0.7-0.8,0.7l-26.9,0
			c-0.5,0-0.8-0.4-0.8-0.9L151.7,58.3z"/>
		<path fill="#F2F2F2" d="M185.1,58.3c0-0.4,0.5-0.9,1-0.9l26.7,0c0.5,0,0.8,0.3,0.8,0.7l0,12.2c0,0.4-0.4,0.7-0.8,0.7l-12.6,0
			c-0.3,0-0.5,0.2-0.5,0.5l0,3.8c0,0.3,0.3,0.5,0.5,0.5l12.7,0c0.3,0,0.5,0.2,0.5,0.5l0,12.3c0,0.3-0.3,0.6-0.6,0.6l-12.9,0
			c-0.3,0-0.5,0.2-0.5,0.5l0,4c0,0.3,0.2,0.5,0.5,0.5l13,0c0.5,0,0.8,0.3,0.8,0.7l0,12.6c0,0.4-0.4,0.7-0.8,0.7l-26.9,0
			c-0.5,0-0.8-0.4-0.8-0.9L185.1,58.3z"/>
		<path fill="#F2F2F2" d="M225.8,82.8c0.1-0.1,0.2-0.4,0.2-0.5c0-0.1-0.1-0.5-0.2-0.7l-8.6-23.3c-0.1-0.3,0-0.7,0.5-0.7l13.8,0
			c0.3,0,0.5,0.3,0.6,0.5l1.7,7c0.1,0.3,0.2,0.5,0.3,0.5c0.2,0,0.3-0.2,0.4-0.5l1.7-7c0.1-0.3,0.3-0.5,0.6-0.5l13.8,0
			c0.3,0,0.6,0.2,0.6,0.5c0,0.1,0,0.3-0.1,0.5l-8.6,22.8c-0.2,0.3-0.2,0.7-0.2,0.9s0.1,0.5,0.2,0.7l8.7,24.6c0.1,0.5,0,0.7-0.5,0.7
			l-14,0c-0.2,0-0.5-0.2-0.5-0.5l-1.7-8.3c-0.1-0.3-0.2-0.4-0.3-0.4c-0.2,0-0.2,0.1-0.3,0.4l-1.7,8.3c-0.1,0.3-0.4,0.5-0.7,0.5
			l-13.8,0c-0.3,0-0.5-0.1-0.5-0.3c0-0.1,0-0.2,0.1-0.3L225.8,82.8z"/>
	</g>
	<text transform="matrix(0.9915 0 0 1 139.1943 48.1133)" fill="#FFFFFF" font-family="'MicrosoftYaHeiLight'" font-size="31.2512">devtool</text>
</g>
</svg>
