<?xml version="1.0" standalone="no"?>
<!DOCTYPE svg PUBLIC "-//W3C//DTD SVG 1.1//EN" "http://www.w3.org/Graphics/SVG/1.1/DTD/svg11.dtd" >
<!--
2013-9-30: Created.
-->
<svg>
<metadata>
Created by iconfont
</metadata>
<defs>

<font id="iconfont" horiz-adv-x="1024" >
  <font-face
    font-family="iconfont"
    font-weight="500"
    font-stretch="normal"
    units-per-em="1024"
    ascent="896"
    descent="-128"
  />
    <missing-glyph />
    
    <glyph glyph-name="icon" unicode="&#58923;" d="M887.799992 688.757095c-21.461801 0-38.875402-17.413602-38.875402-38.875402l0-108.199281C771.729439 649.627912 647.609561 714.674371 512 714.674371c-228.647537 0-414.676417-186.025811-414.676417-414.676417s186.02888-414.673347 414.676417-414.673347c168.537508 0 319.054593 100.68105 383.417483 256.487605 4.100388 9.924024 3.773953 20.552082-0.023536 29.713742-3.796466 9.210779-11.136641 16.957207-21.083178 21.057595-9.895371 4.102435-20.523429 3.796466-29.713742-0.025583-9.185196-3.823072-16.929578-11.162224-21.055548-21.084201-52.292993-126.600373-174.58934-208.398354-311.540456-208.398354-185.7751 0-336.924589 151.146419-336.924589 336.921519s151.149489 336.924589 336.924589 336.924589c116.272143 0 222.118843-58.897412 283.773042-155.503657L680.461783 481.417863c-21.461801 0-38.875402-17.413602-38.875402-38.875402 0-21.459754 17.413602-38.875402 38.875402-38.875402l207.338209 0c21.461801 0 38.875402 17.416671 38.875402 38.875402L926.675394 649.881692C926.675394 671.343493 909.261793 688.757095 887.799992 688.757095z"  horiz-adv-x="1024" />

    
    <glyph glyph-name="bangzhu" unicode="&#58937;" d="M512.00256 383.86944M524.66688 328.76416M289.92 493.44l450.56 0 0 0-450.56 0 0 0ZM798.08128 655.47136c-16.25728 33.792-39.25632 64.39424-68.35712 90.95552-28.93056 26.40512-62.15296 47.22944-98.74688 61.89568C592.8384 823.6096 553.02912 831.36 512.65408 831.36c-40.36096 0-80.15744-7.70048-118.28352-22.88768-36.59136-14.57664-69.81504-35.27552-98.74688-61.52192-29.11488-26.4128-52.12672-56.84736-68.39424-90.4576-17.1456-35.42272-25.83936-72.47104-25.83936-110.11584 0-43.35872 5.24032-106.16832 30.20672-159.17056 26.33856-55.92064 71.35744-106.9504 122.35008-139.34976l0-167.95008c0-2.85056 0.2304-5.72288 0.6848-8.56064 3.55456-37.09696 21.4528-71.38816 50.49472-96.68352 29.09696-25.344 66.82624-39.30112 106.23488-39.30112 37.696 0 74.1888 12.91648 102.75328 36.36864 27.95136 22.9504 46.53184 54.39872 52.52864 88.79872 1.6896 5.29792 2.54336 10.79936 2.54336 16.39936L669.18656 246.34112c45.13408 28.91264 87.8464 75.8976 116.41728 128.6592 31.64288 58.28992 38.2848 124.5248 38.2848 169.824C823.88992 582.64704 815.2064 619.87456 798.08128 655.47136zM511.36128-8.32c-40.98944 0-77.02528 23.15008-92.71424 56.32l185.45024 0C588.3648 14.67648 552.19072-8.32 511.36128-8.32zM612.86784 104.32 410.26688 104.32l0 56.32 202.60096 0L612.86784 104.32zM736.09344 401.8432c-26.70208-49.31072-67.2896-92.22016-108.57088-114.78144l-14.65472-8.00896L612.86784 216.96 410.26688 216.96l0 63.50592-14.52544 8.03712c-46.21952 25.57568-89.59232 72.59136-113.19296 122.7008-20.52864 43.58144-24.83712 97.5616-24.83712 135.17184 0 57.28256 27.61088 115.18592 75.75424 158.85952C382.36288 749.59872 447.67616 775.04 512.65408 775.04c64.93568 0 130.21568-25.59104 179.10272-70.21184 48.18048-43.97568 75.81312-102.29504 75.81312-160.00512C767.56992 506.048 762.11072 449.77152 736.09344 401.8432zM604.7744 696.05888c-17.7088 18.33728-41.39776 29.23008-70.40896 32.37632-41.92256 4.53888-83.4624-14.77504-106.02752-35.93728-15.81056-14.82752-35.68384-43.46624-40.58112-95.6928l56.07424-5.25696c2.49984 26.66368 10.89664 48.48512 23.03488 59.86944 12.82816 12.02944 38.71744 23.4816 61.42976 21.02528 29.28384-3.17568 44.76928-17.50144 51.77728-47.904 5.07136-21.9968-7.89376-46.02368-19.20384-54.91072-34.2528-26.92096-53.50016-47.87456-64.3584-70.06464-11.14496-22.77376-12.02944-43.6608-12.02944-68.60032l0-39.77984 56.32 0L540.80128 430.9632c0 21.8432 0.87552 32.76416 6.2976 43.84512 6.79936 13.89312 21.78048 29.48096 48.57216 50.53824 27.37536 21.51424 49.65888 66.84032 39.28192 111.84512C629.40416 661.26336 619.24992 681.0688 604.7744 696.05888zM484.4928 334.86336l56.32 0 0-56.32-56.32 0 0 56.32Z"  horiz-adv-x="1024" />

    
    <glyph glyph-name="loading" unicode="&#58955;" d="M960 320h-128c-35.328 0-64 28.672-64 64s28.672 64 64 64h128c35.328 0 64-28.672 64-64s-28.672-64-64-64zM783.552 564.992c-25.024-24.96-65.536-24.96-90.56 0-24.96 25.024-24.96 65.536 0 90.56l90.56 90.496c24.96 24.96 65.472 24.96 90.496 0 24.96-25.024 24.96-65.536 0-90.496l-90.496-90.56zM512-128c-35.328 0-64 28.608-64 64v128c0 35.328 28.672 64 64 64s64-28.672 64-64v-128c0-35.392-28.672-64-64-64zM512 640c-35.328 0-64 28.608-64 64v128c0 35.392 28.672 64 64 64s64-28.608 64-64v-128c0-35.392-28.672-64-64-64zM240.448 21.952c-24.96-24.96-65.472-24.96-90.496 0-24.96 24.96-24.96 65.472 0 90.496l90.496 90.496c25.024 25.024 65.536 25.024 90.56 0 24.96-24.96 24.96-65.472 0-90.496l-90.56-90.496zM240.448 564.992l-90.496 90.56c-24.96 24.96-24.96 65.472 0 90.496 25.024 24.96 65.536 24.96 90.496 0l90.56-90.496c24.96-25.024 24.96-65.536 0-90.56-25.024-24.96-65.536-24.96-90.56 0zM256 384c0-35.328-28.672-64-64-64h-128c-35.328 0-64 28.672-64 64s28.672 64 64 64h128c35.328 0 64-28.672 64-64zM783.552 202.944l90.496-90.496c24.96-25.024 24.96-65.536 0-90.496-25.024-24.96-65.536-24.96-90.496 0l-90.56 90.496c-24.96 25.024-24.96 65.536 0 90.496 25.024 25.024 65.536 25.024 90.56 0z"  horiz-adv-x="1024" />

    
    <glyph glyph-name="box" unicode="&#58954;" d="M816.923 432.286l-342.118 182.409 155.25 143.173 341.964-182.309-155.122-143.206zM534.357 622.358l277.17-147.777 101.107 93.366-277.098 147.758-101.258-93.266zM379.225 149.111l-342.118 182.34 155.167 143.161 341.966-182.256-155.017-143.206zM96.651 339.074l277.17-147.776 101.069 93.318-277.098 147.741-101.072-93.254zM192.277 432.286l-155.233 143.206 342.186 182.309 155.027-143.182-341.986-182.34zM96.519 567.967l101.258-93.366 277.098 147.777-101.069 93.266-277.244-147.758zM629.998 149.111l-155.187 143.206 342.118 182.256 155.167-143.161-342.038-182.34zM534.29 284.649l101.107-93.318 277.168 147.776-101.070 93.254-277.193-147.741zM504.587-20.046l-326.89 174.301v112.697h34.704v-91.926l292.183-155.783 292.183 155.783v91.926h34.692v-112.697z"  horiz-adv-x="1024" />

    
    <glyph glyph-name="feiji" unicode="&#59054;" d="M933.546667 697.173333c-9.045333 13.653333-21.504 9.045333-22.528 8.874667L102.912 505.002667c-7.509333-1.877333-13.312-7.68-15.36-15.018667-2.048-7.509333 0-15.36 5.461333-20.821333l152.405333-151.552 43.690667-238.933333c0-0.512 1.706667-14.165333 16.042667-16.896 11.946667-2.218667 17.92 3.754667 18.261333 3.925333l97.450667 77.482667 76.288-75.946667c4.608-4.437333 10.752-6.826667 17.066667-6.144 6.314667 0.682667 11.946667 3.925333 15.701333 9.386667l403.968 602.794667C934.4 674.133333 941.226667 685.397333 933.546667 697.173333zM150.016 472.746667l611.84 152.064L268.970667 354.474667 150.016 472.746667zM314.538667 177.322667l-25.429333 139.434667 348.16 190.976L353.621333 300.544c0 0-3.754667-3.072-5.290667-5.12-1.365333-1.877333-2.730667-6.314667-2.730667-6.314667L314.538667 177.322667zM370.858667 220.16l30.890667-37.717333-53.248-42.325333L370.858667 220.16zM509.952 117.418667l-125.098667 153.088 0 0L831.146667 596.650667 509.952 117.418667z"  horiz-adv-x="1024" />

    
    <glyph glyph-name="huifu" unicode="&#58882;" d="M990.208 4.096c-11.264 0-22.016 6.144-27.648 16.384-120.32 211.456-289.792 236.544-514.048 238.592v-198.656c0-12.8-7.168-24.064-18.944-29.184-11.264-5.12-24.576-3.072-34.304 5.12l-384 335.872C4.096 377.856 0 386.56 0 395.264c0 9.216 3.584 17.92 10.24 24.064l384 359.936c9.216 8.704 23.04 11.264 34.816 6.144 11.776-5.12 19.456-16.384 19.456-29.184v-168.96c100.352-5.12 192-33.792 272.384-85.504 70.656-45.568 133.12-109.056 184.832-188.416 87.552-133.632 114.688-265.728 116.224-270.848 3.072-15.36-5.632-30.72-19.968-36.352-4.608-1.536-8.192-2.048-11.776-2.048zM79.872 396.8l304.128-266.24v160.256c0 17.92 14.336 31.744 31.744 31.744 136.704 0 247.296-7.168 343.552-41.984 50.688-18.432 95.232-44.032 135.168-77.312-12.288 25.088-27.136 50.688-44.032 76.8-106.496 161.792-252.928 243.712-434.688 243.712-17.92 0-31.744 14.336-31.744 31.744V681.984L79.872 396.8z"  horiz-adv-x="1025" />

    
    <glyph glyph-name="jiaochengicon" unicode="&#59277;" d="M522.421862-100.367663c-3.687996 0-6.750751 0.036839-9.641591 0.118704-153.037489 4.093225-267.62527 96.049566-272.428669 99.961666l-8.112772 6.6607L232.23883 298.472068 9.170358 416.688493l500.233002 265.084401 508.630253-258.622222L779.490705 295.678442 779.490705 3.643226l-6.67605-6.597255C768.784876-6.93162 672.4539-100.367663 522.421862-100.367663L522.421862-100.367663zM273.792225 28.793022l4.057409-2.838651c33.744545-23.595394 124.286678-78.799694 235.979526-81.779561 2.537799-0.064468 5.145184-0.097214 7.755638-0.097214 110.785176 0 190.918237 58.685587 212.839503 76.674287l3.50687 2.87549L737.931171 273.473721 509.626441 151.470039 273.792225 276.450519 273.792225 28.793022 273.792225 28.793022zM102.715895 416.688493l406.827659-215.601406 413.734976 221.060745L509.758448 632.425999 102.715895 416.688493 102.715895 416.688493zM35.165406 242.193297 76.718801 242.193297 76.718801 18.964166 35.165406 18.964166 35.165406 242.193297ZM554.56698 513.464607 559.726489 524.79056 696.063621 453.717851 690.898994 442.389852 554.56698 513.464607ZM761.220596 418.054607 755.937267 406.762423 742.237243 414.084179 747.518526 425.37534 761.220596 418.054607Z"  horiz-adv-x="1024" />

    
    <glyph glyph-name="gaojishezhi" unicode="&#59073;" d="M798.65841261 111.49511718999997a395.05580347 395.05580347 0 0 0-195.6633655-112.49372244A112.83272901 112.83272901 0 0 1 512 44.99330347c-37.31898706 0-70.42864085-18.08035692-90.96679688-45.99190872a395.05580347 395.05580347 0 0 0-195.69161573 112.49372244 127.32526539 127.32526539 0 0 1-91.24930223 155.51932176A395.42306105 395.42306105 0 0 0 116.4921875 384c0 40.73730469 6.15862132 80.00558058 17.60009766 116.98556104a127.18401194 127.18401194 0 0 1 91.24930223 155.51932177A395.05580347 395.05580347 0 0 0 421.00495289 768.99860524 112.83272901 112.83272901 0 0 1 512 723.00669653c37.31898706 0 70.42864085 18.08035692 90.96679688 45.99190872a395.05580347 395.05580347 0 0 0 195.69161573-112.49372244 127.32526539 127.32526539 0 0 1 91.24930223-155.51932176c11.44147633-36.97998047 17.60009766-76.27650658 17.60009766-116.98556105 0-40.73730469-6.15862132-80.00558058-17.60009766-116.98556105a127.18401194 127.18401194 0 0 1-91.24930223-155.51932176zM752.12974341 143.87025659000005a169.58810011 169.58810011 0 0 0 102.9167827 155.94308058c6.66713159 27.29003906 10.08544922 55.48409619 10.08544923 84.18666283s-3.39006663 56.89662377-10.08544922 84.18666283a169.58810011 169.58810011 0 0 0-101.9845144 173.8539346 352.7082173 352.7082173 0 0 1-136.22419118 79.27106541A155.0390625 155.0390625 0 0 0 512 680.63085938c-39.55078125 0-76.67201439 14.91629443-104.83782054 40.68080345-50.85100414-15.79206227-97.37967333-42.94084789-136.22419118-79.27106541a169.58810011 169.58810011 0 0 0-101.9845144-173.85393459A354.09249463 354.09249463 0 0 1 158.86802466 384c0-28.70256663 3.39006663-56.89662377 10.08544923-84.18666283a169.58810011 169.58810011 0 0 0 101.98451439-173.8539346 352.7082173 352.7082173 0 0 1 136.22419119-79.27106541A155.0390625 155.0390625 0 0 0 512 87.36914062000005c39.55078125 0 76.67201439-14.91629443 104.83782054-40.68080345 50.85100414 15.79206227 97.37967333 42.94084789 136.22419118 79.27106541a170.97237745 170.97237745 0 0 0-0.9322683 17.91085401zM596.75167433 530.76164866a169.50334788 169.50334788 0 1 0-169.50334866-293.55154833 169.50334788 169.50334788 0 0 0 169.50334866 293.55154833z m-21.21616919-36.69747433a127.09926049 127.09926049 0 1 1-127.07101028-220.10009767 127.09926049 127.09926049 0 0 1 127.07101028 220.10009767z"  horiz-adv-x="1024" />

    
    <glyph glyph-name="shujutubiao" unicode="&#59105;" d="M972.8-117.76H51.2c-22.528 0-40.96 18.432-40.96 40.96V844.8c0 22.528 18.432 40.96 40.96 40.96h921.6c22.528 0 40.96-18.432 40.96-40.96v-921.6c0-22.528-18.432-40.96-40.96-40.96zM92.16-35.84h839.68V803.84H92.16v-839.68zM791.04 558.08H435.2c-22.528 0-40.96 18.432-40.96 40.96s18.432 40.96 40.96 40.96h355.84c22.528 0 40.96-18.432 40.96-40.96s-18.432-40.96-40.96-40.96zM314.88 558.08h-81.92c-22.528 0-40.96 18.432-40.96 40.96s18.432 40.96 40.96 40.96h81.92c22.528 0 40.96-18.432 40.96-40.96s-18.432-40.96-40.96-40.96zM791.04 343.04H435.2c-22.528 0-40.96 18.432-40.96 40.96s18.432 40.96 40.96 40.96h355.84c22.528 0 40.96-18.432 40.96-40.96s-18.432-40.96-40.96-40.96zM314.88 343.04h-81.92c-22.528 0-40.96 18.432-40.96 40.96s18.432 40.96 40.96 40.96h81.92c22.528 0 40.96-18.432 40.96-40.96s-18.432-40.96-40.96-40.96zM791.04 128H435.2c-22.528 0-40.96 18.432-40.96 40.96s18.432 40.96 40.96 40.96h355.84c22.528 0 40.96-18.432 40.96-40.96s-18.432-40.96-40.96-40.96zM314.88 128h-81.92c-22.528 0-40.96 18.432-40.96 40.96s18.432 40.96 40.96 40.96h81.92c22.528 0 40.96-18.432 40.96-40.96s-18.432-40.96-40.96-40.96z"  horiz-adv-x="1024" />

    
    <glyph glyph-name="shigongzhong" unicode="&#58922;" d="M904 720H120c-30.9 0-56-25.1-56-56v-588c0-15.5 12.5-28 28-28s28 12.5 28 28v84h784v-84c0-15.5 12.5-28 28-28s28 12.5 28 28V664c0 30.9-25.1 56-56 56z m-210-56v-112H540V664h154z m-210 0v-112H330V664h154z m-364 0h154v-112H120V664z m784-448H120V496h784v-280zM750 552V664h154v-112H750zM264.7 424.5l112-168c5.4-8.1 14.3-12.5 23.3-12.5 5.4 0 10.8 1.5 15.5 4.7 12.9 8.6 16.4 26 7.8 38.8l-112 168c-8.6 12.9-26.1 16.3-38.8 7.8-12.9-8.6-16.4-26-7.8-38.8z m280-168c5.4-8.1 14.3-12.5 23.3-12.5 5.4 0 10.8 1.5 15.5 4.7 12.9 8.6 16.4 26 7.8 38.8l-112 168c-8.6 12.9-26.1 16.3-38.8 7.8-12.9-8.6-16.4-26-7.8-38.8l112-168z m168 0c5.4-8.1 14.3-12.5 23.3-12.5 5.4 0 10.8 1.5 15.5 4.7 12.9 8.6 16.4 26 7.8 38.8l-112 168c-8.7 12.9-26.1 16.3-38.8 7.8-12.9-8.6-16.4-26-7.8-38.8l112-168z"  horiz-adv-x="1024" />

    
    <glyph glyph-name="tongjibaobiao" unicode="&#58886;" d="M904 776H120c-30.9 0-56-25.1-56-56v-672c0-30.9 25.1-56 56-56h784c30.9 0 56 25.1 56 56V720c0 30.9-25.1 56-56 56z m0-728H120V603.3h784V48zM120 664v56h784v-56H120zM232 188c0-15.5 12.5-28 28-28 9 0 16.6 4.5 21.8 11.1l0.4-0.3 179.7 231.7 123.3-82.2c12.4-8.3 27.2-11.4 42.1-8.3 14.7 3 27.3 11.4 33.5 21.1l124.5 144.7-0.2 0.2c4.2 4.9 7 11.1 7 18.1 0 15.5-12.5 28-28 28-8.5 0-15.8-4-21-9.9l-0.2 0.2-126.7-147.6L492.9 449c-24.6 16.3-56.6 11.2-75-12l-180-231.9 0.4-0.3c-3.7-4.7-6.3-10.3-6.3-16.8z"  horiz-adv-x="1024" />

    
    <glyph glyph-name="luzhi" unicode="&#58898;" d="M95.744 384c0-229.888 186.368-416.256 416.256-416.256s416.256 186.368 416.256 416.256v0.512c0 229.888-186.368 416.256-416.256 416.256S95.744 613.888 95.744 384z"  horiz-adv-x="1024" />

    
    <glyph glyph-name="lajitong" unicode="&#58903;" d="M254.59261389 83.69138287999999c0-47.19135413 38.61110791-85.80246203 85.80246202-85.80246204h343.20984818c47.19135413 0 85.80246203 38.61110791 85.80246202 85.80246204V598.50615507H254.59261389v-514.81477219z m557.71600323 643.51846528h-150.15430854l-42.90123103 42.901231h-214.5061551l-42.90123103-42.901231H211.69138288v-85.80246205h600.61723424v85.80246205z"  horiz-adv-x="1024" />

    
    <glyph glyph-name="ziyuan" unicode="&#59614;" d="M506.671095 335.727081a50.183647 50.183647 0 0 0-30.684689 10.309374l-438.483112 234.912534A34.591784 34.591784 0 0 0 29.65259 586.718344a49.477692 49.477692 0 0 0 0.438179 70.595477 34.397037 34.397037 0 0 0 8.763576 6.207533L485.687198 885.604986A51.120862 51.120862 0 0 0 516.737036 895.999562a50.13496 50.13496 0 0 0 29.735302-9.615591l438.349224-205.396322a34.56744 34.56744 0 0 0 9.518217-6.597026 49.258602 49.258602 0 0 0 14.605961-35.857634 49.903699 49.903699 0 0 0-15.056311-34.750014 33.167702 33.167702 0 0 0-7.242122-5.440721L538.59729 346.778924a51.120862 51.120862 0 0 0-31.926195-11.051843z m-417.487044 285.704763L506.354632 397.936302l428.271111 249.518495L517.077842 834.033774z m16.212617-0.206918M1005.464653 466.048765a30.17348 30.17348 0 0 1-40.750631 12.670671L511.990099 240.727478 59.266175 478.719436a30.17348 30.17348 0 0 1-40.75063-12.670671 30.17348 30.17348 0 0 1 12.670671-40.75063l465.564997-244.735043a35.492485 35.492485 0 0 1 30.429085 0L992.793982 425.298135a30.17348 30.17348 0 0 1 12.670671 40.75063zM1005.464653 313.501677a30.17348 30.17348 0 0 1-40.750631 12.670671L511.990099 88.18039 59.266175 326.172348a30.17348 30.17348 0 0 1-40.75063-12.670671 30.17348 30.17348 0 0 1 12.670671-40.75063l465.564997-244.735043a35.492485 35.492485 0 0 1 30.429085 0L992.793982 272.751047a30.17348 30.17348 0 0 1 12.670671 40.75063zM1005.464653 160.954589a30.17348 30.17348 0 0 1-40.750631 12.670671L511.990099-64.342355 59.266175 173.62526A30.17348 30.17348 0 0 1 18.515545 160.954589a30.17348 30.17348 0 0 1 12.670671-40.75063l465.564997-244.735043a35.492485 35.492485 0 0 1 30.429085 0L992.793982 120.203959a30.17348 30.17348 0 0 1 12.670671 40.75063z"  horiz-adv-x="1024" />

    
    <glyph glyph-name="jiankang" unicode="&#58883;" d="M731.788 895.993H330.084C168.975 895.993 37.9 764.919 37.9 603.809v-99.579c0-15.77 12.782-28.554 28.554-28.554s28.554 12.785 28.554 28.554v99.58c0 129.62 105.455 235.075 235.076 235.075h401.704c129.62 0 235.075-105.455 235.075-235.076v-401.707c0-129.62-105.455-235.07-235.075-235.07H330.084c-129.62 0-235.076 105.45-235.076 235.07V321.483h116.124a28.552 28.552 0 0 1 26.017 16.786l26.016 57.516L370.51 134.364a28.55 28.55 0 0 1 27.4-17.691 28.561 28.561 0 0 1 26.116 19.547l138.99 419.023 58.463-206.88c3.474-12.297 14.7-20.791 27.478-20.791h224.63c15.771 0 28.553 12.782 28.553 28.554s-12.782 28.554-28.554 28.554H670.564l-77.882 275.606c-3.413 12.069-14.3 20.5-26.837 20.78-12.364 0.363-23.796-7.649-27.745-19.555l-144.027-434.19-103.229 251.397a28.542 28.542 0 0 1-25.91 17.701c-11.266 0.404-21.824-6.397-26.52-16.781l-45.703-101.047H28.576C12.804 378.591 0.02 365.81 0.02 350.037s12.783-28.554 28.555-28.554H37.9v-119.381c0-161.108 131.075-292.178 292.184-292.178h401.704c161.113 0 292.183 131.07 292.183 292.178V603.809c0 161.11-131.07 292.184-292.183 292.184z"  horiz-adv-x="1024" />

    
    <glyph glyph-name="shezhi" unicode="&#58963;" d="M617.088-106.176c-16 18.496-66.432 66.56-107.776 66.56-41.024 0-92.288-48.32-107.008-65.28-11.648-13.44-29.632-21.44-48.064-21.44a57.92 57.92 0 0 0-24.704 5.312L202.624-46.08a66.56 66.56 0 0 0-21.44 78.08c0 0.192 11.52 28.288 11.52 53.888 0 77.76-59.712 140.992-133.12 140.992h-4.48c-21.76 0-38.912 19.84-44.352 50.432C10.24 279.68 0 337.792 0 383.552s10.24 103.872 10.688 106.24c5.568 31.04 23.04 51.008 44.48 50.432h4.48c73.344 0 133.12 63.232 133.12 140.992 0 25.6-11.52 53.76-11.648 54.016-11.328 26.944-2.56 60.16 20.416 76.992L335.36 890.304A60.416 60.416 0 0 0 361.088 896c18.368 0 36.416-7.872 48.192-20.992 15.68-17.408 65.28-62.656 105.408-62.656 39.744 0 89.024 44.352 104.64 61.44 11.712 12.928 29.632 20.608 47.872 20.608 8.832 0 17.152-1.792 24.704-5.248l129.408-75.968c24.128-17.856 32.896-51.008 21.504-78.08 0-0.192-11.52-28.288-11.52-53.888 0-77.76 59.712-140.992 133.12-140.992h4.48c21.312 0.512 38.848-19.392 44.352-50.368 0.448-2.432 10.752-60.544 10.752-106.24 0-45.824-10.24-103.872-10.752-106.304-5.504-31.04-23.04-50.88-44.416-50.432h-4.48c-73.344 0-133.12-63.232-133.12-140.992 0-25.6 11.52-53.696 11.648-53.952 11.328-26.944 2.56-60.16-20.352-77.056l-131.456-77.12a59.52 59.52 0 0 0-25.6-5.76c-18.56 0-36.736 8.192-48.384 21.824z m44.416 43.136c0.64-0.384 2.24-1.088 3.968-1.088h0.192l121.6 71.168c-2.88 7.232-16.32 42.304-16.32 78.848 0 109.376 81.344 199.04 183.296 204.608 1.472 8.576 9.472 56.832 9.472 93.056s-8 84.48-9.472 93.12c-101.952 5.568-183.296 95.232-183.296 204.544 0 36.608 13.44 71.68 16.384 78.912l-119.68 70.4a9.152 9.152 0 0 1-5.12-1.28 343.168 343.168 0 0 0-44.16-39.296c-36.928-27.52-71.808-41.408-103.68-41.408-32.256 0-67.392 14.208-104.512 42.24a344.96 344.96 0 0 0-44.48 40.064 9.216 9.216 0 0 1-5.12 1.28L236.736 760.064c3.008-7.36 16.384-42.304 16.384-78.848 0-109.312-81.344-198.976-183.296-204.544-1.472-8.64-9.472-56.896-9.472-93.12 0-36.224 8-84.48 9.472-93.056 101.952-5.632 183.296-95.232 183.296-204.608 0-36.672-13.504-71.808-16.448-78.912l117.312-69.44a8 8 0 0 1 4.16 1.024c2.24 2.56 19.776 22.144 44.992 41.728 37.632 29.184 73.344 44.032 106.24 44.032 33.216 0 69.184-15.104 107.072-44.864 25.344-19.968 42.944-40 45.12-42.496zM509.76 196.48c-97.792 0-177.28 84.288-177.28 187.776 0 103.552 79.488 187.776 177.28 187.776s177.28-84.224 177.28-187.776c0-103.488-79.488-187.776-177.28-187.776z m0 311.68c-64.512 0-116.992-55.552-116.992-123.904 0-68.288 52.48-123.904 116.992-123.904s116.992 55.616 116.992 123.904c0 68.352-52.48 123.904-116.992 123.904z"  horiz-adv-x="1024" />

    
    <glyph glyph-name="jinzhi" unicode="&#59050;" d="M511.6 793.8C286.3 793.8 102 609.5 102 384.2s184.3-409.6 409.6-409.6 409.6 184.3 409.6 409.6-184.4 409.6-409.6 409.6z m307.2-409.6c0-66.6-20.5-128-56.3-179.2L332.4 635.1c51.2 35.8 112.6 56.3 179.2 56.3 168.9 0 307.2-138.2 307.2-307.2z m-614.4 0c0 66.6 20.5 128 56.3 179.2l430.1-430.1C639.6 97.5 578.1 77 511.6 77c-169 0-307.2 138.3-307.2 307.2z m0 0"  horiz-adv-x="1024" />

    
    <glyph glyph-name="tubiao-" unicode="&#58962;" d="M926.3104 106.325333L442.5216 590.148267a119.978667 119.978667 0 0 1-85.418667 35.3792 119.978667 119.978667 0 0 1-85.4016-35.3792c-47.069867-47.104-47.069867-123.733333 0-170.820267l483.7888-483.805867a119.978667 119.978667 0 0 1 85.418667-35.3792 119.978667 119.978667 0 0 1 85.4016 35.3792c47.104 47.086933 47.104 123.733333 0 170.8032zM307.9168 553.949867a69.12 69.12 0 0 0 49.2032 20.3776c18.5856 0 36.061867-7.236267 49.220267-20.3776l87.825066-87.842134-95.197866-101.649066-91.050667 91.050666a69.717333 69.717333 0 0 0 0 98.440534z m582.1952-582.229334c-13.1584-13.1584-30.6176-20.3776-49.2032-20.3776s-36.061867 7.236267-49.220267 20.3776l-356.522666 356.522667 95.197866 101.666133 359.7312-359.765333a69.051733 69.051733 0 0 0 20.3776-49.2032 68.9152 68.9152 0 0 0-20.360533-49.220267zM111.325867 707.242667c0.733867-0.170667 73.984-18.0736 73.984-62.6688a17.066667 17.066667 0 0 1 33.518933-4.539734c0.2048 0.768 21.589333 75.4176 79.650133 82.6368a17.066667 17.066667 0 0 1 8.123734 31.5392c-21.128533 13.533867-77.056 57.531733-83.4048 99.157334a17.066667 17.066667 0 0 1-16.878934 14.472533h-0.238933a17.1008 17.1008 0 0 1-16.708267-14.984533c-0.1024-0.887467-11.8272-89.053867-79.940266-112.878934-7.168-2.5088-11.8272-9.489067-11.400534-17.066666 0.477867-7.5776 5.888-13.9776 13.294934-15.6672z m98.628266 92.433066c14.4896-21.418667 33.860267-39.8848 50.158934-53.333333-26.4704-13.124267-44.526933-35.720533-56.200534-55.8592-12.578133 16.725333-30.856533 28.484267-47.240533 36.386133 27.221333 20.360533 43.5712 48.605867 53.282133 72.8064zM492.0832 656.1792c0.8704-0.2048 87.2448-21.316267 87.2448-74.734933a17.066667 17.066667 0 0 1 33.536-4.488534c0.256 0.887467 25.207467 89.4464 95.095467 97.194667a17.066667 17.066667 0 0 1 7.424 31.2832c-3.208533 2.0992-78.557867 52.087467-98.013867 118.4256a17.066667 17.066667 0 1 1-33.3312-2.7648c-0.119467-1.041067-13.380267-103.970133-93.815467-132.1472a17.066667 17.066667 0 0 1 1.860267-32.768z m113.476267 112.349867c18.670933-29.9008 43.52-54.101333 62.685866-70.1952-33.826133-15.172267-56.1152-44.066133-69.853866-68.7616-15.1552 22.016-39.168 36.846933-59.733334 46.2336 35.976533 25.309867 55.995733 62.737067 66.901334 92.7232zM306.056533 276.736c-3.208533 2.2016-79.940267 55.381333-101.751466 123.170133a17.066667 17.066667 0 0 1-33.1776-3.1744c-0.136533-1.0752-14.2848-107.9808-97.3312-137.079466a17.032533 17.032533 0 0 1 1.860266-32.733867c0.904533-0.221867 90.624-22.152533 90.624-77.806933a17.066667 17.066667 0 0 1 33.536-4.5056c0.256 0.938667 26.112 92.808533 98.7648 100.881066a17.066667 17.066667 0 0 1 7.4752 31.249067z m-120.610133-78.967467c-15.7696 23.415467-41.301333 39.0144-62.9248 48.759467 38.4512 26.709333 59.392 66.884267 70.5536 98.372267 18.961067-30.3616 44.424533-57.053867 65.5872-75.093334-35.6864-15.684267-59.016533-46.199467-73.216-72.0384z"  horiz-adv-x="1024" />

    
    <glyph glyph-name="mock" unicode="&#59106;" d="M264.533333 145.066667c8.533333-8.533333 17.066667-12.8 25.6-12.8 12.8 0 21.333333 4.266667 29.866667 12.8 17.066667 17.066667 12.8 46.933333-4.266667 59.733333l-179.2 170.666667 8.533334 8.533333 187.733333 174.933333c17.066667 17.066667 17.066667 42.666667 4.266667 59.733334-12.8 25.6-38.4 25.6-55.466667 8.533333L17.066667 379.733333l247.466666-234.666666z m742.4 234.666666l-251.733333 234.666667c-17.066667 17.066667-42.666667 12.8-55.466667-4.266667-17.066667-17.066667-12.8-46.933333 4.266667-59.733333l179.2-170.666667-8.533333-8.533333-187.733334-174.933333c-17.066667-17.066667-17.066667-42.666667-4.266666-59.733334 8.533333-8.533333 17.066667-12.8 29.866666-12.8 8.533333 0 21.333333 4.266667 25.6 12.8l268.8 243.2zM644.266667 827.733333l-81.066667 12.8-192-900.266666 81.066667-12.8 192 900.266666z"  horiz-adv-x="1024" />

    
    <glyph glyph-name="ceshi" unicode="&#58991;" d="M458.142113 690.639878h511.649924v64.629464H458.142113v-64.629464z m-333.918897 64.629464v129.258928h236.974701v-323.14732H124.223216v129.258928H27.27902v64.629464h96.944196z m172.345237 59.243675H188.85268v-188.502603h107.715773v188.502603z m549.350445-468.563614h123.873139v64.629464h-123.873139v-64.629464z m-296.218377 64.629464v129.258928h236.974701v-323.14732H549.700521v129.258928H27.27902v64.629464h522.421501z m172.345237 64.629464H619.715773v-188.502603h102.329985v188.502603z m-263.903645-468.563614h511.649924v64.629464H458.142113v-64.629464z m-333.918897 64.629464v123.873139h236.974701v-323.14732H124.223216v129.258928H27.27902v64.629464h96.944196v5.385789z m172.345237 59.243675H188.85268v-188.502603h107.715773v188.502603z"  horiz-adv-x="1024" />

    
    <glyph glyph-name="taolun" unicode="&#58940;" d="M487.5 782.5C271.3 782.5 96 630.2 96 442.4c0-115 66.9-217.5 167.7-280.3v-105.4c0-14.2 10-22.6 21.3-22.6 4.2 0 8.4 1.3 11.3 2.9L403 108.2c27.2-5.9 54-7.1 82.4-7.1 216.3 0 391.1 152.3 391.1 340.1 2.1 189-172.7 341.3-389 341.3z m0-624.6c-24.3 0-48.5 2.9-72.4 7.1l-11.3 2.9c-7.1 1.3-14.2 0-21.3-4.2l-10-7.1-51-34.3v55.2c0 10-5.9 20.1-14.2 24.3l-14.2 8.4c-88.3 52.7-141 139.3-141 230.5 0 156.4 149.3 283.2 334.2 283.2s334.2-126.7 334.2-283.2c1.2-154.8-149.8-282.8-333-282.8zM265.4 432.3c0-25.9 20.9-46.8 46.8-46.8s46.8 20.9 46.8 46.8-20.9 46.8-46.8 46.8c-25.9 0.1-46.8-20.8-46.8-46.8z m177.8 0c0-25.9 20.9-46.8 46.8-46.8s46.8 20.9 46.8 46.8-20.9 46.8-46.8 46.8c-25.9 0.1-46.8-20.8-46.8-46.8z m172.3 0c0-25.9 20.9-46.8 46.8-46.8s46.8 20.9 46.8 46.8-20.9 46.8-46.8 46.8c-25.9 0.1-46.8-20.8-46.8-46.8z m0 0M884.9 358.7c-0.8 1.3-1.7 2.1-2.5 2.9-6.3-23.4-15.1-45.6-25.9-66.9 0.4-0.8 0.8-2.1 1.7-2.9 7.5-17.1 11.3-35.6 11.3-54.8 0-51-29.7-100-79.1-129.7l-8-4.6c-4.6-2.5-7.9-7.9-7.9-13.4v-31l-28.9 19.2-5.4 4.2c-4.2 2.5-8 3.3-12.1 2.5l-6.3-1.7c-13.8-2.5-27.2-4.2-40.6-4.2-32.6 0-63.2 7.1-89.9 19.7-26.8-6.3-54.4-10-82.4-11.3 44.3-38.5 105.8-61.9 173.6-61.9 18 0 35.1 0.8 51.9 4.6l67.3-44.8c1.7-0.8 4.6-1.7 7.1-1.7 7.1 0 13.4 5.4 13.4 14.2v66.1C885.7 102.7 928 167.1 928 239.9c-0.8 43.5-16.3 84.9-43.1 118.8z m0 0"  horiz-adv-x="1024" />

    
    <glyph glyph-name="number" unicode="&#58880;" d="M174.00295859 555.11984105c-3.11126984 3.11126984-8.20243866 3.11126984-11.3137085 0l-42.42640687-42.42640687c-3.11126984-3.11126984-3.11126984-8.20243866 0-11.3137085L236.22835534 385.41421356 118.84862966 268.03448789000004c-3.11126984-3.11126984-3.11126984-8.20243866 0-11.3137085l45.254834-45.254834c3.11126984-3.11126984 8.20243866-3.11126984 11.3137085 0l117.37972567 117.37972568L454.01724394 167.62532495999994 336.63751827 50.245599279999965c-3.11126984-3.11126984-3.11126984-8.20243866 0-11.3137085l45.25483399-45.25483399c3.11126984-3.11126984 8.20243866-3.11126984 11.3137085 0l117.37972568 117.37972567L629.37972568-7.737156779999964c3.11126984-3.11126984 8.20243866-3.11126984 11.3137085 0l42.42640687 42.42640687c3.11126984 3.11126984 3.11126984 8.20243866 0 11.3137085l-118.79393924 118.79393924 166.87720036 166.87720036L849.99704141 212.88015895c3.11126984-3.11126984 8.20243866-3.11126984 11.3137085 0l42.42640687 42.42640687c3.11126984 3.11126984 3.11126984 8.20243866 0 11.3137085l-118.79393924 118.79393924 117.37972567 117.37972568c3.11126984 3.11126984 3.11126984 8.20243866 0 11.3137085l-45.25483399 45.25483399c-3.11126984 3.11126984-8.20243866 3.11126984-11.3137085 0L728.37467504 441.98275606l-161.22034611 161.22034611 117.37972568 117.37972567c3.11126984 3.11126984 3.11126984 8.20243866 0 11.3137085l-45.254834 45.254834c-3.11126984 3.11126984-8.20243866 3.11126984-11.3137085 0L510.58578644 659.77164466l-115.96551212 115.96551212c-3.11126984 3.11126984-8.20243866 3.11126984-11.3137085 0l-42.42640687-42.42640687c-3.11126984-3.11126984-3.11126984-8.20243866 0-11.3137085L456.84567107 606.03152929 289.96847071 439.15432893l-115.96551212 115.96551212zM513.41421356 549.4629868L674.63455967 388.24264069 507.75735931 221.36544032999996l-161.22034611 161.22034611 166.87720036 166.87720036z"  horiz-adv-x="1024" />

    
    <glyph glyph-name="xiala" unicode="&#58968;" d="M543.744 248.32c-7.168-7.168-16.896-13.824-26.112-11.776-9.216-1.536-17.92 5.632-25.088 11.776L270.848 471.04c-11.264 11.264-11.264 29.696 0 40.96s29.696 11.264 40.96 0l206.336-211.968L724.992 512c11.264 11.264 29.696 11.264 40.96 0s11.264-29.696 0-40.96L543.744 248.32z"  horiz-adv-x="1024" />

    
    <glyph glyph-name="debug" unicode="&#59216;" d="M725.58845851 590.21476851c0 51.53297952-14.74738 88.36000427-51.53297952 125.18702902s-73.6540495 51.53297952-125.18702902 51.53297952c-44.20071475 0-88.36000427-14.74738-125.18702901-51.53297952-29.45333475-36.82702475-51.53297952-73.6540495-51.53297952-125.18702902h353.48144229zM975.96251653 302.97226049999995c-7.37368999 7.37368999-14.74738 7.37368999-22.07964474 7.37369h-125.18702903v162.01405377l95.73369427 95.73369426c7.37368999 7.37368999 7.37368999 14.74738 7.37368999 22.07964476s0 14.74738-7.37368999 22.07964476c-7.37368999 7.37368999-14.74738 7.37368999-22.07964476 7.37369s-14.74738 0-22.07964477-7.37369l-95.73369425-95.73369427h-463.96251655L195.38700768 641.70632281c7.37368999 7.37368999 7.37368999 14.74738 14.74738 14.74737998 36.82702475 44.20071475 36.82702475 51.53297952 36.82702475 51.53297952v22.12106999c22.07964477 22.07964477 29.45333475 36.82702475 36.82702474 36.82702475 14.74738 7.37368999 29.45333475 0 36.82702475 0s7.37368999-7.37368999 14.74738-14.74737998l-7.37369001-7.37369001v-7.37368999l36.82702476-29.45333476h7.37369l51.53297952 58.90666951v7.37368999l-44.20071476 29.45333476h-7.37368999v-7.37368999h-14.74737999c-14.74738 7.37368999-7.37368999 22.07964477-14.74737999 29.45333475s-14.74738 22.07964477-22.07964476 22.07964477c-7.37368999 7.37368999-36.82702475 29.45333475-81.02773949 44.20071473-51.53297952 14.74738-88.36000427 0-95.73369428-14.74737998-7.37368999 0-14.74738-14.74738 0-14.74738 7.37368999 0 51.53297952 7.37368999 66.28035952 0 14.74738-14.74738 29.45333475-29.45333475 36.82702475-51.53297952 0-22.07964477 0-36.82702475-29.45333475-66.2803595l-7.37369 7.37369h-7.37369s-7.37368999-7.37368999-36.82702475-51.53297951c-66.2803595-58.90666951-132.56071902-125.18702901-132.56071901-125.18702902v-7.37369l58.90666952-51.53297952h7.37368998s22.07964477 29.45333475 51.53297952 73.65404951l117.81333903-117.81333902v-162.01405377H143.77117772c-7.37368999 0-14.74738 0-22.07964476-7.37369s-7.37368999-14.74738-7.37368999-22.07964477c0-7.37368999 0-14.74738 7.37368999-22.07964474 7.37368999-14.74738 14.74738-22.07964477 22.07964476-22.07964477h125.18702902c0-58.90666951 7.37368999-110.48107425 29.45333475-147.308099l-110.48107426-125.18702901c-7.37368999-7.37368999-7.37368999-14.74738-7.37368998-22.07964477s7.37368999-14.74738 14.74737999-22.07964476c7.37368999-7.37368999 14.74738-7.37368999 22.07964475-7.37368999s22.07964477 7.37368999 29.45333476 14.74737998l103.10738426 110.48107426 7.37369-7.37369c0-14.74738 7.37368999-14.74738 14.74737998-22.07964476s22.07964477-14.74738 36.82702474-22.07964475c14.74738-7.37368999 29.45333475-14.74738 44.20071476-14.74738 22.07964477-7.37368999 36.82702475-7.37368999 58.90666951-7.37368999V450.32178473h73.6540495V-43.094066569999995c14.74738 0 36.82702475 0 51.53297951 7.37369s29.45333475 7.37368999 44.20071476 14.74737998 22.07964477 14.74738 36.82702474 22.07964477 22.07964477 14.74738 22.07964477 14.74737999l7.37368999 7.37369 110.48107424-110.48107426c7.37368999-7.37368999 14.74738-7.37368999 22.07964477-7.37368999s14.74738 0 22.07964476 7.37368999c7.37368999 7.37368999 7.37368999 14.74738 7.37368999 22.07964476s0 14.74738-7.37368999 22.07964476l-110.48107424 117.81333902c22.07964477 44.20071475 36.82702475 95.73369426 36.82702475 162.01405377h125.18702901c7.37368999 0 14.74738 0 22.07964476 7.37368999s7.37368999 14.74738 7.37368999 22.07964477c7.37368999 22.07964477 0 29.45333475-7.37368999 36.82702475z"  horiz-adv-x="1024" />

    
    <glyph glyph-name="xiaochengxu" unicode="&#58969;" d="M700.59804445 786.92503703c-42.71976297 0-84.46862222-10.67994075-120.99887408-32.88936295-69.41961482-39.07887408-111.16847408-108.49848889-111.16847407-184.10761483v-371.8561185c0-43.5693037-24.87940741-83.61908148-66.74962963-107.64894816-24.02986667-13.34992592-50.72971852-20.51034075-78.27911112-20.51034074-80.09955555 0-145.02874075 57.76877037-145.02874073 128.03792593 0 21.35988148 5.33997037 41.74885925 16.86945185 60.43875555 16.86945185 28.5202963 47.08882963 50.72971852 85.43952592 62.2592 4.49042963 1.82044445 8.00995555 1.82044445 9.8304 1.82044445 24.87940741 0 44.41884445 19.53943703 44.41884444 44.41884444s-19.53943703 44.41884445-44.41884444 44.41884445c-10.67994075 0-21.35988148-1.82044445-37.37979259-6.18951112-56.91922963-16.86945185-104.12942222-52.4288-133.3778963-100.48853333-19.53943703-32.88936297-30.21937778-69.41961482-30.21937778-106.67804444 0-120.02797037 104.97896297-216.99697778 233.9877926-216.99697778 42.71976297 0 84.46862222 10.67994075 121.84841481 32.03982222 69.41961482 39.07887408 111.16847408 108.49848889 111.16847408 184.10761481V569.9280592499999c0 43.5693037 24.87940741 83.61908148 66.74962962 107.64894816 24.02986667 13.34992592 50.72971852 20.51034075 78.27911112 20.51034074 79.12865185 0 144.05783703-57.76877037 144.05783703-128.03792593 0-21.35988148-5.33997037-41.74885925-16.86945185-60.43875555-16.86945185-29.36983703-47.08882963-51.57925925-85.43952592-62.2592-4.49042963-1.82044445-8.00995555-1.82044445-9.8304-1.82044445-24.87940741 0-44.41884445-19.53943703-44.41884444-44.41884444s19.53943703-44.41884445 44.41884444-44.41884445c10.67994075 0 22.20942222 1.82044445 37.37979259 6.18951112 56.91922963 16.86945185 104.12942222 52.4288 133.3778963 100.48853333 19.53943703 32.88936297 30.21937778 69.41961482 30.21937778 106.67804444 0 119.90660741-104.97896297 216.87561482-233.86642963 216.87561481z"  horiz-adv-x="1024" />

    


  </font>
</defs>
</svg>
